<svg width="1280" height="832" viewBox="0 0 1280 832" fill="none" xmlns="http://www.w3.org/2000/svg">
<path d="M321 656.418H786.455" stroke="#F0F9FF" stroke-width="4" stroke-linecap="round"/>
<path d="M321 656.194L495.545 353.873" stroke="#F0F9FF" stroke-width="4" stroke-linecap="round"/>
<path d="M786.455 772.558L961 470.236" stroke="#F0F9FF" stroke-width="4" stroke-linecap="round"/>
<path d="M786.455 656.194L961 353.873" stroke="#F0F9FF" stroke-width="4" stroke-linecap="round"/>
<path d="M321 772.782V656.418" stroke="#F0F9FF" stroke-width="4" stroke-linecap="round"/>
<path d="M786.455 772.782V656.418" stroke="#F0F9FF" stroke-width="4" stroke-linecap="round"/>
<path d="M495.545 353.873H961" stroke="#F0F9FF" stroke-width="4" stroke-linecap="round"/>
<path d="M961 470.236V353.873" stroke="#F0F9FF" stroke-width="4" stroke-linecap="round"/>
<path d="M457.564 563.327L458.145 526.091" stroke="#F0F9FF" stroke-width="4" stroke-linecap="round"/>
<path d="M826.182 483.036L826.764 446.964" stroke="#F0F9FF" stroke-width="4" stroke-linecap="round"/>
<path d="M321 772.782H786.455" stroke="#F0F9FF" stroke-width="4" stroke-linecap="round"/>
<mask id="path-12-inside-1_1_2" fill="white">
<path d="M816.418 523.68C852.568 461.067 803.726 410.309 707.327 410.309C610.928 410.309 503.477 461.067 467.327 523.68C431.178 586.293 480.019 637.05 576.418 637.05C672.817 637.05 780.269 586.293 816.418 523.68Z"/>
</mask>
<path d="M816.418 523.68C852.568 461.067 803.726 410.309 707.327 410.309C610.928 410.309 503.477 461.067 467.327 523.68C431.178 586.293 480.019 637.05 576.418 637.05C672.817 637.05 780.269 586.293 816.418 523.68Z" stroke="#F0F9FF" stroke-width="8" mask="url(#path-12-inside-1_1_2)"/>
<mask id="path-13-inside-2_1_2" fill="white">
<path d="M817 487.025C853.149 424.412 804.308 373.655 707.909 373.655C611.51 373.655 504.059 424.412 467.909 487.025C431.76 549.638 480.601 600.396 577 600.396C673.399 600.396 780.85 549.638 817 487.025Z"/>
</mask>
<path d="M817 487.025C853.149 424.412 804.308 373.655 707.909 373.655C611.51 373.655 504.059 424.412 467.909 487.025C431.76 549.638 480.601 600.396 577 600.396C673.399 600.396 780.85 549.638 817 487.025Z" fill="#A78BFA" stroke="#F0F9FF" stroke-width="8" mask="url(#path-13-inside-2_1_2)"/>
<mask id="path-14-inside-3_1_2" fill="white">
<path d="M759.109 482.98C783.209 441.238 750.648 407.4 686.382 407.4C622.116 407.4 550.481 441.238 526.382 482.98C502.282 524.722 534.843 558.561 599.109 558.561C663.375 558.561 735.009 524.722 759.109 482.98Z"/>
</mask>
<path d="M759.109 482.98C783.209 441.238 750.648 407.4 686.382 407.4C622.116 407.4 550.481 441.238 526.382 482.98C502.282 524.722 534.843 558.561 599.109 558.561C663.375 558.561 735.009 524.722 759.109 482.98Z" stroke="#F0F9FF" stroke-width="4" stroke-dasharray="404.77 404.77" mask="url(#path-14-inside-3_1_2)"/>
<mask id="path-15-inside-4_1_2" fill="white">
<path d="M718.77 482.805C734.836 454.977 713.129 432.418 670.285 432.418C627.441 432.418 579.685 454.977 563.618 482.805C547.552 510.633 569.259 533.192 612.103 533.192C654.947 533.192 702.703 510.633 718.77 482.805Z"/>
</mask>
<path d="M718.77 482.805C734.836 454.977 713.129 432.418 670.285 432.418C627.441 432.418 579.685 454.977 563.618 482.805C547.552 510.633 569.259 533.192 612.103 533.192C654.947 533.192 702.703 510.633 718.77 482.805Z" stroke="#F0F9FF" stroke-width="4" stroke-dasharray="404.77 404.77" mask="url(#path-15-inside-4_1_2)"/>
<mask id="path-16-inside-5_1_2" fill="white">
<path d="M680.758 483.212C688.791 469.298 677.937 458.018 656.515 458.018C635.093 458.018 611.215 469.298 603.182 483.212C595.149 497.126 606.002 508.405 627.424 508.405C648.846 508.405 672.724 497.126 680.758 483.212Z"/>
</mask>
<path d="M680.758 483.212C688.791 469.298 677.937 458.018 656.515 458.018C635.093 458.018 611.215 469.298 603.182 483.212C595.149 497.126 606.002 508.405 627.424 508.405C648.846 508.405 672.724 497.126 680.758 483.212Z" fill="#1F2937" stroke="#F0F9FF" stroke-width="8" mask="url(#path-16-inside-5_1_2)"/>
<mask id="path-17-inside-6_1_2" fill="white">
<path d="M895.061 385.664C901.487 374.533 892.804 365.509 875.667 365.509C858.529 365.509 839.427 374.533 833 385.664C826.573 396.795 835.256 405.819 852.394 405.819C869.531 405.819 888.634 396.795 895.061 385.664Z"/>
</mask>
<path d="M895.061 385.664C901.487 374.533 892.804 365.509 875.667 365.509C858.529 365.509 839.427 374.533 833 385.664C826.573 396.795 835.256 405.819 852.394 405.819C869.531 405.819 888.634 396.795 895.061 385.664Z" fill="#F0F9FF" stroke="#F0F9FF" stroke-width="8" mask="url(#path-17-inside-6_1_2)"/>
<path d="M864.709 385.873V300.345" stroke="#F0F9FF" stroke-width="30" stroke-linecap="round"/>
<path d="M879.545 273L763.182 474.548" stroke="#F0F9FF" stroke-width="30" stroke-linecap="round"/>
<path d="M763.182 498.745L760.662 481.291H765.701L763.182 498.745Z" fill="#F0F9FF"/>
<path d="M825.784 468.317C825.784 467.383 825.954 466.409 825.954 465.518C825.954 465.206 826.21 464.832 826.284 464.5C826.375 464.09 826.293 464.932 826.293 465.094" stroke="#F0F9FF" stroke-width="3" stroke-linecap="round"/>
<path d="M458.201 542.379V545.569" stroke="#F0F9FF" stroke-width="3" stroke-linecap="round"/>
<path d="M302 427.085H427.043" stroke="#F0F9FF" stroke-width="6" stroke-linecap="round"/>
<path d="M302 427.085V295.42" stroke="#F0F9FF" stroke-width="6" stroke-linecap="round"/>
<path d="M427.043 427.085V295.42" stroke="#F0F9FF" stroke-width="6" stroke-linecap="round"/>
<path d="M442.443 399.982V268.317" stroke="#F0F9FF" stroke-width="6" stroke-linecap="round"/>
<path d="M302 294.103H427.043" stroke="#F0F9FF" stroke-width="6" stroke-linecap="round"/>
<path d="M318.015 267H442.443" stroke="#F0F9FF" stroke-width="6" stroke-linecap="round"/>
<path d="M302.242 294.111L317.814 267" stroke="#F0F9FF" stroke-width="6" stroke-linecap="round"/>
<path d="M426.865 294.111L442.437 267" stroke="#F0F9FF" stroke-width="6" stroke-linecap="round"/>
<path d="M427.082 427.093L442.654 399.982" stroke="#F0F9FF" stroke-width="6" stroke-linecap="round"/>
<g style="mix-blend-mode:lighten">
<path d="M405 356.5C405 378.282 387.125 396 365 396C342.875 396 325 378.282 325 356.5C325 334.718 342.875 317 365 317C387.125 317 405 334.718 405 356.5Z" fill="#A78BFA"/>
<path d="M405 356.5C405 378.282 387.125 396 365 396C342.875 396 325 378.282 325 356.5C325 334.718 342.875 317 365 317C387.125 317 405 334.718 405 356.5Z" stroke="#F0F9FF" stroke-width="6"/>
</g>
<circle cx="365" cy="356" r="16" fill="#1F2937"/>
<g style="mix-blend-mode:lighten">
<circle cx="154.971" cy="267.327" r="44.2515" fill="#A78BFA"/>
<circle cx="154.971" cy="267.327" r="44.2515" stroke="#F0F9FF" stroke-width="6"/>
</g>
<path d="M60 772.123H249.942" stroke="#F0F9FF" stroke-width="6" stroke-linecap="round"/>
<path d="M60 772.123L60 204.17" stroke="#F0F9FF" stroke-width="6" stroke-linecap="round"/>
<path d="M249.942 772.123L249.942 204.17" stroke="#F0F9FF" stroke-width="6" stroke-linecap="round"/>
<path d="M273.333 730.953L273.333 163" stroke="#F0F9FF" stroke-width="6" stroke-linecap="round"/>
<path d="M60 204.17H249.942" stroke="#F0F9FF" stroke-width="6" stroke-linecap="round"/>
<path d="M84.3275 163H273.333" stroke="#F0F9FF" stroke-width="6" stroke-linecap="round"/>
<path d="M60.3672 204.182L84.0209 163" stroke="#F0F9FF" stroke-width="6" stroke-linecap="round"/>
<path d="M249.67 204.182L273.324 163" stroke="#F0F9FF" stroke-width="6" stroke-linecap="round"/>
<path d="M249.672 772.123L273.325 730.941" stroke="#F0F9FF" stroke-width="6" stroke-linecap="round"/>
<circle cx="155" cy="267" r="23" fill="#1F2937"/>
<g style="mix-blend-mode:lighten">
<circle cx="1102.97" cy="267.326" r="44.2507" fill="#A78BFA"/>
<circle cx="1102.97" cy="267.326" r="44.2507" stroke="#F0F9FF" stroke-width="6"/>
</g>
<path d="M1008 772.113H1197.94" stroke="#F0F9FF" stroke-width="6" stroke-linecap="round"/>
<path d="M1008 772.113V204.169" stroke="#F0F9FF" stroke-width="6" stroke-linecap="round"/>
<path d="M1197.94 772.113V204.169" stroke="#F0F9FF" stroke-width="6" stroke-linecap="round"/>
<path d="M1221.33 730.944V163" stroke="#F0F9FF" stroke-width="6" stroke-linecap="round"/>
<path d="M1008 204.169H1197.94" stroke="#F0F9FF" stroke-width="6" stroke-linecap="round"/>
<path d="M1032.33 163H1221.33" stroke="#F0F9FF" stroke-width="6" stroke-linecap="round"/>
<path d="M1008.37 204.181L1032.02 163" stroke="#F0F9FF" stroke-width="6" stroke-linecap="round"/>
<path d="M1197.67 204.181L1221.32 163" stroke="#F0F9FF" stroke-width="6" stroke-linecap="round"/>
<path d="M1197.67 772.113L1221.32 730.932" stroke="#F0F9FF" stroke-width="6" stroke-linecap="round"/>
<circle cx="1103" cy="267" r="23" fill="#1F2937"/>
</svg>
