<svg width="1104" height="877" viewBox="0 0 1104 877" fill="none" xmlns="http://www.w3.org/2000/svg">
<path d="M2 675H802" stroke="#F0F9FF" stroke-width="4" stroke-linecap="round"/>
<path d="M2 674.615L302 155" stroke="#F0F9FF" stroke-width="4" stroke-linecap="round"/>
<path d="M802 874.615L1102 355" stroke="#F0F9FF" stroke-width="4" stroke-linecap="round"/>
<path d="M802 674.615L1102 155" stroke="#F0F9FF" stroke-width="4" stroke-linecap="round"/>
<path d="M2 875L2 675" stroke="#F0F9FF" stroke-width="4" stroke-linecap="round"/>
<path d="M802 875V675" stroke="#F0F9FF" stroke-width="4" stroke-linecap="round"/>
<path d="M302 155H1102" stroke="#F0F9FF" stroke-width="4" stroke-linecap="round"/>
<path d="M1102 355V155" stroke="#F0F9FF" stroke-width="4" stroke-linecap="round"/>
<path d="M235 515L236 451" stroke="#F0F9FF" stroke-width="4" stroke-linecap="round"/>
<path d="M872 377L873 315" stroke="#F0F9FF" stroke-width="4" stroke-linecap="round"/>
<path d="M2 875H802" stroke="#F0F9FF" stroke-width="4" stroke-linecap="round"/>
<path d="M665 253.732C747.452 253.732 809.487 275.441 843.182 310.458C876.876 345.473 882.181 393.715 851.5 446.856C820.819 499.996 759.809 548.238 685.683 583.254C611.555 618.27 524.452 639.979 442 639.979C359.548 639.979 297.513 618.27 263.818 583.254C230.124 548.238 224.819 499.996 255.5 446.856C286.181 393.715 347.191 345.473 421.317 310.458C495.445 275.441 582.548 253.732 665 253.732Z" stroke="#F0F9FF" stroke-width="4"/>
<path d="M666 190.732C748.452 190.732 810.487 212.441 844.182 247.458C877.876 282.473 883.181 330.715 852.5 383.856C821.819 436.996 760.809 485.238 686.683 520.254C612.555 555.27 525.452 576.979 443 576.979C360.548 576.979 298.513 555.27 264.818 520.254C231.124 485.238 225.819 436.996 256.5 383.856C287.181 330.715 348.191 282.473 422.317 247.458C496.445 212.441 583.548 190.732 666 190.732Z" fill="#A78BFA" stroke="#F0F9FF" stroke-width="4"/>
<path d="M593.375 249.034C509.85 258.128 425.032 296.801 377.955 346.613C378.398 346.755 378.412 347.239 377.986 347.695C369.216 357.081 361.8 366.858 356 376.904C350.2 386.949 346.326 396.727 344.258 406.113C344.158 406.569 343.585 407.052 342.978 407.195C332.537 457.007 372.7 495.679 445.724 504.773C446.07 504.3 446.764 503.966 447.275 504.028C457.7 505.286 468.793 505.942 480.5 505.942C492.207 505.942 504.057 505.286 515.935 504.028C516.517 503.966 516.826 504.3 516.625 504.773C600.15 495.679 684.968 457.007 732.045 407.195C731.602 407.052 731.588 406.569 732.014 406.113C740.784 396.727 748.2 386.949 754 376.904C759.8 366.858 763.674 357.081 765.742 347.695C765.842 347.239 766.415 346.755 767.022 346.613C777.463 296.801 737.3 258.128 664.276 249.034C663.93 249.508 663.236 249.841 662.725 249.78C652.299 248.522 641.207 247.866 629.5 247.866C617.793 247.866 605.943 248.522 594.065 249.78C593.483 249.841 593.174 249.508 593.375 249.034Z" fill="#A78BFA" stroke="#F0F9FF" stroke-width="2" stroke-linecap="round" stroke-dasharray="200 600"/>
<path d="M541.51 298.04C513.618 305.217 486.977 316.803 465.016 331.179C465.269 331.48 465.021 332.023 464.461 332.394C444.961 345.321 429.326 360.449 420 376.603C410.674 392.756 408.841 407.884 413.414 420.811C413.545 421.182 413.165 421.725 412.565 422.026C417.927 436.402 431.189 447.988 450.794 455.165C451.234 454.714 451.94 454.473 452.372 454.628C466.238 459.579 483.239 462.339 502.833 462.339C522.428 462.339 542.616 459.579 562.198 454.628C562.809 454.473 563.238 454.714 563.157 455.165C591.049 447.988 617.69 436.402 639.651 422.026C639.398 421.725 639.645 421.182 640.205 420.811C659.706 407.884 675.34 392.756 684.667 376.603C693.993 360.449 695.826 345.321 691.253 332.394C691.122 332.023 691.501 331.48 692.101 331.179C686.74 316.803 673.478 305.217 653.873 298.04C653.433 298.491 652.727 298.732 652.294 298.577C638.429 293.627 621.428 290.866 601.833 290.866C582.239 290.866 562.05 293.627 542.468 298.577C541.858 298.732 541.429 298.491 541.51 298.04Z" fill="#A78BFA" stroke="#F0F9FF" stroke-width="2" stroke-linecap="round" stroke-dasharray="360 230"/>
<path d="M577.667 335.732C595.685 335.732 609.181 340.478 616.485 348.068C623.788 355.658 624.852 366.011 618.333 377.301C611.815 388.591 598.797 398.944 582.729 406.534C566.661 414.125 547.685 418.87 529.667 418.87C511.648 418.87 498.152 414.125 490.849 406.534C483.545 398.944 482.482 388.591 489 377.301C495.518 366.011 508.536 355.658 524.604 348.068C540.672 340.478 559.648 335.732 577.667 335.732Z" fill="#1F2937" stroke="#F0F9FF" stroke-width="4"/>
<path d="M954.333 176.732C968.67 176.732 979.392 180.509 985.188 186.532C990.983 192.554 991.804 200.743 986.667 209.641C981.529 218.539 971.253 226.728 958.504 232.75C945.753 238.773 930.67 242.55 916.333 242.55C901.997 242.55 891.275 238.773 885.479 232.75C879.683 226.728 878.862 218.539 884 209.641C889.138 200.743 899.413 192.554 912.163 186.532C924.914 180.509 939.997 176.732 954.333 176.732Z" fill="#F0F9FF" stroke="#F0F9FF" stroke-width="4"/>
<path d="M936.5 210V63" stroke="#F0F9FF" stroke-width="30" stroke-linecap="round"/>
<path d="M962 16L762 362.41" stroke="#F0F9FF" stroke-width="30" stroke-linecap="round"/>
<path d="M762 404L757.67 374H766.33L762 404Z" fill="#F0F9FF"/>
<path d="M869.598 351.701C869.598 350.096 869.889 348.422 869.889 346.891C869.889 346.354 870.33 345.711 870.456 345.141C870.613 344.436 870.472 345.883 870.472 346.162" stroke="#F0F9FF" stroke-width="3" stroke-linecap="round"/>
<path d="M237.814 478.995V484.479" stroke="#F0F9FF" stroke-width="3" stroke-linecap="round"/>
</svg>
