<svg id="e8zqMISgxsD1" xmlns="http://www.w3.org/2000/svg" xmlns:xlink="http://www.w3.org/1999/xlink" viewBox="0 0 1104 877" shape-rendering="geometricPrecision" text-rendering="geometricPrecision"><path d="M2,675h800" fill="none" stroke="#f0f9ff" stroke-width="4" stroke-linecap="round"/><path d="M2,674.615L302,155" fill="none" stroke="#f0f9ff" stroke-width="4" stroke-linecap="round"/><path d="M802,874.615L1102,355" fill="none" stroke="#f0f9ff" stroke-width="4" stroke-linecap="round"/><path d="M802,674.615L1102,155" fill="none" stroke="#f0f9ff" stroke-width="4" stroke-linecap="round"/><path d="M2,875v-200" fill="none" stroke="#f0f9ff" stroke-width="4" stroke-linecap="round"/><path d="M802,875v-200" fill="none" stroke="#f0f9ff" stroke-width="4" stroke-linecap="round"/><path d="M302,155h800" fill="none" stroke="#f0f9ff" stroke-width="4" stroke-linecap="round"/><path d="M1102,355v-200" fill="none" stroke="#f0f9ff" stroke-width="4" stroke-linecap="round"/><path d="M235,515l1-64" fill="none" stroke="#f0f9ff" stroke-width="4" stroke-linecap="round"/><path d="M872,377l1-62" fill="none" stroke="#f0f9ff" stroke-width="4" stroke-linecap="round"/><path d="M2,875h800" fill="none" stroke="#f0f9ff" stroke-width="4" stroke-linecap="round"/><path d="M665,253.732c82.452,0,144.487,21.709,178.182,56.726c33.694,35.015,38.999,83.257,8.318,136.398-30.681,53.14-91.691,101.382-165.817,136.398C611.555,618.27,524.452,639.979,442,639.979s-144.487-21.709-178.182-56.725c-33.694-35.016-38.999-83.258-8.318-136.398c30.681-53.141,91.691-101.383,165.817-136.398C495.445,275.441,582.548,253.732,665,253.732Z" fill="none" stroke="#f0f9ff" stroke-width="4"/><path d="M666,190.732c82.452,0,144.487,21.709,178.182,56.726c33.694,35.015,38.999,83.257,8.318,136.398-30.681,53.14-91.691,101.382-165.817,136.398C612.555,555.27,525.452,576.979,443,576.979s-144.487-21.709-178.182-56.725c-33.694-35.016-38.999-83.258-8.318-136.398c30.681-53.141,91.691-101.383,165.817-136.398C496.445,212.441,583.548,190.732,666,190.732Z" transform="translate(0-1.527)" fill="#a78bfa" stroke="#f0f9ff" stroke-width="4"/><path d="M666,190.732c82.452,0,144.487,21.709,178.182,56.726c33.694,35.015,38.999,83.257,8.318,136.398-30.681,53.14-91.691,101.382-165.817,136.398C612.555,555.27,525.452,576.979,443,576.979s-144.487-21.709-178.182-56.725c-33.694-35.016-38.999-83.258-8.318-136.398c30.681-53.141,91.691-101.383,165.817-136.398C496.445,212.441,583.548,190.732,666,190.732Z" transform="matrix(.463668 0 0 0.463668 297.396102 204.346987)" fill="#a78bfa" fill-opacity="0" stroke="#f0f9ff" stroke-width="4" stroke-dasharray="404.77158"/><path d="M666,190.732c82.452,0,144.487,21.709,178.182,56.726c33.694,35.015,38.999,83.257,8.318,136.398-30.681,53.14-91.691,101.382-165.817,136.398C612.555,555.27,525.452,576.979,443,576.979s-144.487-21.709-178.182-56.725c-33.694-35.016-38.999-83.258-8.318-136.398c30.681-53.141,91.691-101.383,165.817-136.398C496.445,212.441,583.548,190.732,666,190.732Z" transform="matrix(.638668 0 0 0.638668 200.358599 137.172275)" fill="#a78bfa" fill-opacity="0" stroke="#f0f9ff" stroke-width="4" stroke-dasharray="404.77158"/><path d="M577.667,335.732c18.018,0,31.514,4.746,38.818,12.336c7.303,7.59,8.367,17.943,1.848,29.233-6.518,11.29-19.536,21.643-35.604,29.233-16.068,7.591-35.044,12.336-53.062,12.336-18.019,0-31.515-4.745-38.818-12.336-7.304-7.59-8.367-17.943-1.849-29.233s19.536-21.643,35.604-29.233s35.044-12.336,53.063-12.336Z" fill="#1f2937" stroke="#f0f9ff" stroke-width="4"/><path d="M954.333,176.732c14.337,0,25.059,3.777,30.855,9.8c5.795,6.022,6.616,14.211,1.479,23.109-5.138,8.898-15.414,17.087-28.163,23.109-12.751,6.023-27.834,9.8-42.171,9.8-14.336,0-25.058-3.777-30.854-9.8-5.796-6.022-6.617-14.211-1.479-23.109s15.413-17.087,28.163-23.109c12.751-6.023,27.834-9.8,42.17-9.8Z" fill="#f0f9ff" stroke="#f0f9ff" stroke-width="4"/><path d="M936.5,210v-147" fill="none" stroke="#f0f9ff" stroke-width="30" stroke-linecap="round"/><path d="M962,16L762,362.41" fill="none" stroke="#f0f9ff" stroke-width="30" stroke-linecap="round"/><path d="M762,404l-4.33-30h8.66L762,404Z" fill="#f0f9ff"/><path d="M869.598,351.701c0-1.605.291-3.279.291-4.81c0-.537.441-1.18.567-1.75.157-.705.016.742.016,1.021" fill="none" stroke="#f0f9ff" stroke-width="3" stroke-linecap="round"/><path d="M237.814,478.995v5.484" fill="none" stroke="#f0f9ff" stroke-width="3" stroke-linecap="round"/></svg>
